PathFileType	4	(X/Y/Z)	/Users/itak/Documents/Research/Walk-IL/dataset/trc/00380_00012.trc
DataRate	CameraRate	NumFrames	NumMarkers	Units	OrigDataRate	OrigDataStartFrame	OrigNumFrames
100.000000	100.000000	4	57	mm	100.000000	209	559
Frame#	Time	RPSI			LPSI			L3			STRN			T10			C7			CLAV			RBAK			LBAK			LSHO			LUPA			LAEL			LAOL			LWTS			LWPS			LFRA			LIFD			LHPS			LHTS			RSHO			RUPA			RAEL			RAOL			RWPS			RFRA			RIFD			RBHD			LFHD			RFHD			LBHD			LHIP			RHIP			RASI			LASI			LKNE			LTHI			LANK			LTIP			LTOE			LMT1			LMT5			LHEE			RKNE			RTHI			RANK			RTIP			RTOE			RMT1			RMT5			RHEE			RWTS			RHPS			RHTS			*53			*54			*55			*56			
		X1	Y1	Z1	X2	Y2	Z2	X3	Y3	Z3	X4	Y4	Z4	X5	Y5	Z5	X6	Y6	Z6	X7	Y7	Z7	X8	Y8	Z8	X9	Y9	Z9	X10	Y10	Z10	X11	Y11	Z11	X12	Y12	Z12	X13	Y13	Z13	X14	Y14	Z14	X15	Y15	Z15	X16	Y16	Z16	X17	Y17	Z17	X18	Y18	Z18	X19	Y19	Z19	X20	Y20	Z20	X21	Y21	Z21	X22	Y22	Z22	X23	Y23	Z23	X24	Y24	Z24	X25	Y25	Z25	X26	Y26	Z26	X27	Y27	Z27	X28	Y28	Z28	X29	Y29	Z29	X30	Y30	Z30	X31	Y31	Z31	X32	Y32	Z32	X33	Y33	Z33	X34	Y34	Z34	X35	Y35	Z35	X36	Y36	Z36	X37	Y37	Z37	X38	Y38	Z38	X39	Y39	Z39	X40	Y40	Z40	X41	Y41	Z41	X42	Y42	Z42	X43	Y43	Z43	X44	Y44	Z44	X45	Y45	Z45	X46	Y46	Z46	X47	Y47	Z47	X48	Y48	Z48	X49	Y49	Z49	X50	Y50	Z50	X51	Y51	Z51	X52	Y52	Z52	X53	Y53	Z53	X54	Y54	Z54	X55	Y55	Z55	X56	Y56	Z56	X57	Y57	Z57	

210	2.09	-1386.97314453125	964.0137329101562	150.3249053955078	-1388.734497070312	952.0260620117188	16.88895606994629	-1384.326782226562	1037.590087890625	94.63092803955078	-1123.999389648438	1169.819702148438	101.9869079589844	-1383.90771484375	1142.251831054688	94.25177001953125	-1314.345092773438	1384.682006835938	94.96028900146484	-1166.767333984375	1293.78955078125	100.7743530273438	-1374.4287109375	1244.860595703125	161.1684417724609	-1332.957763671875	1351.166015625	-7.846443176269531	-1246.010864257812	1359.18603515625	-59.13912200927734	-1297.50830078125	1252.687622070312	-128.5082550048828	-1330.733764648438	1060.84814453125	-161.0948638916016	-1380.815795898438	1048.76806640625	-92.86808776855469	-1293.751342773438	825.9591064453125	-133.7064361572266	-1349.949951171875	830.87744140625	-193.5098876953125	-1341.847778320312	956.4255981445312	-176.9782562255859	-1341.5576171875	654.2423095703125	-148.0729370117188	-1357.285034179688	744.8862915039062	-190.2748413085938	-1304.221801757812	729.6633911132812	-160.6792602539062	-1262.178100585938	1357.959716796875	252.6120300292969	-1282.682250976562	1295.356323242188	312.3363647460938	-1287.883422851562	1033.995239257812	366.8595581054688	-1308.939086914062	1020.6826171875	273.9924926757812	-1136.406860351562	841.0603637695312	384.8450927734375	-1247.627197265625	973.9248046875	380.4850769042969	-1033.64501953125	716.4205932617188	319.2326354980469	-1270.389282226562	1566.39306640625	172.3627777099609	-1133.077270507812	1563.00439453125	27.34661674499512	-1138.845458984375	1573.890747070312	149.5146789550781	-1281.078125	1551.116943359375	11.37660789489746	-1295.098510742188	947.3353881835938	-89.67861175537109	-1313.851440429688	928.0126342773438	268.6315002441406	-1177.917724609375	923.9205932617188	225.0495300292969	-1185.089965820312	938.9159545898438	-36.75425338745117	-1050.56640625	504.6174011230469	-45.46401596069336	-1124.537841796875	625.4114990234375	-68.24238586425781	-985.2996826171875	56.04037475585938	-13.81969356536865	-1014.378295898438	269.3975219726562	-42.93639373779297	-798.9752197265625	134.7643432617188	62.81290054321289	-870.6694946289062	106.2080459594727	89.77320098876953	-863.5582885742188	91.18734741210938	-16.01923751831055	-1023.738342285156	45.31427383422852	40.34646606445312	-1382.237670898438	447.4911499023438	228.7972412109375	-1278.86669921875	693.0708618164062	262.8746337890625	-1532.95654296875	56.37864685058594	172.818115234375	-1403.79150390625	322.5959777832031	203.2941284179688	-1361.689208984375	40.00382614135742	94.78897857666016	-1439.879760742188	43.72174072265625	71.59504699707031	-1449.684204101562	46.16939926147461	171.2972869873047	-1612.968872070312	51.77704238891602	126.7939758300781	-1100.791015625	873.3023071289062	328.1640930175781	-1093.224731445312	761.7349243164062	380.42333984375	-1040.219970703125	785.2843627929688	344.6448059082031	nan	nan	nan	nan	nan	nan	nan	nan	nan	nan	nan	nan	
211	2.1	-1378.938598632812	961.8740844726562	149.5265655517578	-1380.2890625	949.392822265625	16.15269088745117	-1375.76611328125	1034.773315429688	93.93562316894531	-1116.145751953125	1167.23974609375	101.8510437011719	-1375.949096679688	1139.4755859375	93.65370178222656	-1306.532958984375	1382.029418945312	94.70517730712891	-1158.84814453125	1291.22021484375	100.6303405761719	-1366.723754882812	1242.204467773438	160.8056640625	-1324.985717773438	1348.596557617188	-7.971321582794189	-1238.16650390625	1356.700927734375	-59.35992431640625	-1290.65478515625	1250.5537109375	-128.4598388671875	-1326.174072265625	1059.069458007812	-160.4227447509766	-1375.657958984375	1047.488037109375	-91.64322662353516	-1292.578735351562	823.5422973632812	-133.1826934814453	-1349.333862304688	829.5198974609375	-192.7035675048828	-1339.045532226562	954.8674926757812	-176.1935119628906	-1344.601318359375	652.7918701171875	-147.0670623779297	-1358.498168945312	743.7174072265625	-189.3318328857422	-1305.789306640625	727.235107421875	-159.9770812988281	-1254.61865234375	1355.23095703125	252.4727935791016	-1275.133911132812	1292.431396484375	312.0544128417969	-1279.12841796875	1030.989990234375	366.8848876953125	-1299.888916015625	1017.373901367188	273.989501953125	-1122.71240234375	842.2062377929688	384.7656860351562	-1237.690185546875	971.866455078125	380.4913024902344	-1016.877563476562	720.6642456054688	319.0810241699219	-1262.968994140625	1563.84912109375	172.3185119628906	-1125.485107421875	1560.50341796875	27.17504119873047	-1131.338012695312	1571.481323242188	149.3724365234375	-1273.449462890625	1548.313110351562	11.29403877258301	-1286.117797851562	944.458251953125	-90.07143402099609	-1306.417724609375	926.045166015625	268.2801208496094	-1170.192138671875	921.4833374023438	225.2139282226562	-1176.188720703125	936.2284545898438	-36.65241622924805	-1039.754760742188	503.32568359375	-44.80718612670898	-1114.536865234375	623.5157470703125	-68.04964447021484	-966.0511474609375	56.01271057128906	-11.85695457458496	-999.29541015625	268.9158020019531	-41.54150390625	-781.90380859375	137.9979095458984	66.94525146484375	-853.5841064453125	108.4625549316406	93.01872253417969	-844.7551879882812	93.05451202392578	-12.57146072387695	-1005.058959960938	44.829345703125	41.79843902587891	-1378.729858398438	446.6591796875	229.1409301757812	-1272.982543945312	691.1485595703125	263.1575012207031	-1532.785766601562	56.71476364135742	173.0076293945312	-1401.466552734375	321.9782409667969	203.5792083740234	-1361.79541015625	39.92833709716797	94.80441284179688	-1439.966674804688	43.77083969116211	71.64012908935547	-1449.654052734375	46.12723541259766	171.4132232666016	-1612.97021484375	52.97390747070312	127.1889343261719	-1088.245361328125	875.489990234375	328.0774536132812	-1077.080932617188	764.1559448242188	380.362548828125	-1024.656372070312	789.5221557617188	344.6034851074219	nan	nan	nan	nan	nan	nan	nan	nan	nan	nan	nan	nan	
212	2.11	-1370.723266601562	959.6676025390625	148.6973876953125	-1371.700317382812	946.7435302734375	15.40513896942139	-1367.073364257812	1032.015502929688	93.26580047607422	-1108.0712890625	1164.662231445312	101.6249465942383	-1367.750610351562	1136.741455078125	93.09629821777344	-1298.496337890625	1379.393798828125	94.42343902587891	-1150.695190429688	1288.641845703125	100.4083099365234	-1358.7373046875	1239.525756835938	160.4175872802734	-1316.822143554688	1346.041381835938	-8.122625350952148	-1230.15478515625	1354.203979492188	-59.63593673706055	-1283.631591796875	1248.40771484375	-128.4521331787109	-1321.3935546875	1057.28515625	-159.7902526855469	-1370.239501953125	1046.168090820312	-90.45194244384766	-1290.978271484375	821.246337890625	-132.699951171875	-1348.30224609375	828.1829833984375	-191.8376007080078	-1335.96630859375	953.3203125	-175.4196166992188	-1346.973876953125	651.4802856445312	-145.8723907470703	-1359.218139648438	742.5811767578125	-188.2642364501953	-1306.759155273438	724.9619750976562	-159.2216491699219	-1246.7763671875	1352.511962890625	252.2928466796875	-1267.313232421875	1289.50146484375	311.7267150878906	-1270.18017578125	1027.984130859375	366.7896118164062	-1290.5966796875	1014.060119628906	273.8438720703125	-1109.104736328125	843.3199462890625	384.6753540039062	-1227.632690429688	969.7861328125	380.4081420898438	-1000.18212890625	725.0247192382812	319.0073547363281	-1255.43505859375	1561.312377929688	172.2710418701172	-1117.774658203125	1558.093872070312	26.99129104614258	-1123.68798828125	1569.098266601562	149.2182159423828	-1265.659057617188	1545.522338867188	11.18155002593994	-1277.170654296875	941.6245727539062	-90.5252685546875	-1298.759887695312	924.015869140625	267.9188232421875	-1162.26708984375	919.0363159179688	225.3421936035156	-1167.208984375	933.5827026367188	-36.57872009277344	-1028.576782226562	502.1708984375	-44.12865829467773	-1104.191772460938	621.7373657226562	-67.83252716064453	-948.4226684570312	55.91213607788086	-9.985724449157715	-984.828857421875	268.4447326660156	-40.19051742553711	-766.0873413085938	140.3711700439453	70.69390106201172	-837.722412109375	110.1336517333984	95.95448303222656	-827.5325317382812	94.38019561767578	-9.45648193359375	-987.9262084960938	44.40272521972656	43.22757720947266	-1374.984130859375	445.8797302246094	229.4199066162109	-1266.8486328125	689.1927490234375	263.3659057617188	-1532.56103515625	57.16073989868164	173.2434539794922	-1398.958374023438	321.4216003417969	203.8371887207031	-1361.910034179688	39.88474655151367	94.80933380126953	-1440.02197265625	43.88700866699219	71.71837615966797	-1449.562622070312	46.09467315673828	171.5724334716797	-1612.916625976562	54.35590744018555	127.6216430664062	-1075.718627929688	877.6123046875	328.0337829589844	-1061.20654296875	766.6069946289062	380.3149719238281	-1009.383605957031	793.6930541992188	344.6381530761719	nan	nan	nan	nan	nan	nan	nan	nan	nan	nan	nan	nan	
213	2.12	-1362.31884765625	957.3927001953125	147.8343505859375	-1362.96240234375	944.0894775390625	14.64528274536133	-1358.2705078125	1029.35205078125	92.61158752441406	-1099.761962890625	1162.123413085938	101.3125610351562	-1359.3017578125	1134.091918945312	92.57316589355469	-1290.21630859375	1376.815307617188	94.12138366699219	-1142.310668945312	1286.087890625	100.1053161621094	-1350.442138671875	1236.862182617188	159.9949645996094	-1308.4697265625	1343.534057617188	-8.304096221923828	-1221.966430664062	1351.72412109375	-59.96762084960938	-1276.42236328125	1246.271484375	-128.4826354980469	-1316.359741210938	1055.516357421875	-159.1952362060547	-1364.534057617188	1044.824096679688	-89.29642486572266	-1288.94091796875	819.0674438476562	-132.2613677978516	-1346.808349609375	826.8792724609375	-190.9205017089844	-1332.572875976562	951.8013916015625	-174.6647796630859	-1348.646484375	650.3048706054688	-144.5160217285156	-1359.397705078125	741.4866333007812	-187.0937957763672	-1307.085083007812	722.8469848632812	-158.4188079833984	-1238.627319335938	1349.844482421875	252.0677490234375	-1259.196655273438	1286.616333007812	311.3638000488281	-1261.021606445312	1025.029541015625	366.5745544433594	-1281.053588867188	1010.796569824219	273.5611267089844	-1095.6103515625	844.3800048828125	384.5695495605469	-1217.449829101562	967.71875	380.2314758300781	-983.5498657226562	729.45654296875	319.0216674804688	-1247.7734375	1558.8046875	172.2098846435547	-1109.937255859375	1555.81103515625	26.79117393493652	-1115.890502929688	1566.780883789062	149.0473175048828	-1257.708740234375	1542.780517578125	11.036452293396	-1268.161987304688	938.8668823242188	-91.02653503417969	-1290.863403320312	921.9498291015625	267.5348510742188	-1154.139404296875	916.619140625	225.4253082275391	-1158.1435546875	931.0189208984375	-36.54378128051758	-1017.055419921875	501.1576843261719	-43.40670394897461	-1093.53662109375	620.0859985351562	-67.56483459472656	-932.4834594726562	55.65091323852539	-8.24242115020752	-971.006103515625	267.9426879882812	-38.88828659057617	-751.5530395507812	141.7941436767578	74.04147338867188	-823.1626586914062	111.1127624511719	98.57083129882812	-811.9300537109375	95.07657623291016	-6.691407680511475	-972.4247436523438	43.95057678222656	44.59124374389648	-1370.969970703125	445.1737365722656	229.6130981445312	-1260.440063476562	687.271728515625	263.4798889160156	-1532.26708984375	57.74431228637695	173.5262451171875	-1396.231079101562	320.9446716308594	204.0642852783203	-1362.014038085938	39.86167907714844	94.80672454833984	-1440.0361328125	44.08273696899414	71.82479858398438	-1449.394287109375	46.08340835571289	171.7709197998047	-1612.781127929688	55.95215606689453	128.0813293457031	-1063.206787109375	879.6477661132812	328.0275268554688	-1045.638671875	769.052001953125	380.2728576660156	-994.428466796875	797.7445068359375	344.7544860839844	nan	nan	nan	nan	nan	nan	nan	nan	nan	nan	nan	nan	
